<svg width="191" height="46" viewBox="0 0 191 46" fill="none" xmlns="http://www.w3.org/2000/svg">
<rect width="191" height="46" rx="2" fill="white"/>
<path fill-rule="evenodd" clip-rule="evenodd" d="M46.5 23.5C46.5 22.1193 46.3926 20.7787 46.1919 19.4797H23.5V28.4522H36.4426C35.9519 31.4361 34.2714 33.9868 31.7151 35.7428V41.7041H39.4256C43.9 37.5484 46.5 31.0807 46.5 23.5Z" fill="#4285F4"/>
<path fill-rule="evenodd" clip-rule="evenodd" d="M23.5 46C29.7 46 34.9 43.9667 39.4256 41.7041L31.7151 35.7428C29.6 37.1 26.8 37.9667 23.5 37.9667C17.3458 37.9667 12.1959 33.8372 10.3442 28.3333H2.36328V34.4946C6.87328 41.6333 14.6 46 23.5 46Z" fill="#34A853"/>
<path fill-rule="evenodd" clip-rule="evenodd" d="M10.3442 28.3333C9.90415 26.9333 9.65831 25.4333 9.65831 23.9C9.65831 22.3667 9.90415 20.8667 10.3442 19.4667V13.3054H2.36328C0.860728 16.5667 0 20.1333 0 23.9C0 27.6667 0.860728 31.2333 2.36328 34.4946L10.3442 28.3333Z" fill="#FBBC05"/>
<path fill-rule="evenodd" clip-rule="evenodd" d="M23.5 9.83333C26.9917 9.83333 30.1083 11.0833 32.5583 13.4167L39.4167 6.55833C34.8917 2.49167 29.7 0 23.5 0C14.6 0 6.87328 4.36667 2.36328 11.5054L10.3442 17.6667C12.1959 12.1628 17.3458 9.83333 23.5 9.83333Z" fill="#EA4335"/>
<path d="M70.5547 24.0156V33H67.6953V12.5625H74.5547C75.9193 12.5625 77.1068 12.8151 78.1172 13.3203C79.1354 13.8255 79.9115 14.5443 80.4453 15.4766C80.9792 16.4089 81.2461 17.4583 81.2461 18.625C81.2461 20.3802 80.6589 21.7812 79.4844 22.8281C78.3177 23.875 76.6979 24.3984 74.625 24.3984H70.5547V24.0156ZM70.5547 21.7344H74.5547C75.7214 21.7344 76.6094 21.4323 77.2188 20.8281C77.8281 20.224 78.1328 19.3906 78.1328 18.3281C78.1328 17.2656 77.8281 16.4115 77.2188 15.7656C76.6094 15.1198 75.7734 14.7891 74.7109 14.7734H70.5547V21.7344Z" fill="#757575"/>
<path d="M91.8359 33.2344C89.9557 33.2344 88.4245 32.6094 87.2422 31.3594C86.0599 30.1094 85.4688 28.4323 85.4688 26.3281V25.9219C85.4688 24.5052 85.7396 23.2422 86.2812 22.1328C86.8229 21.0234 87.5885 20.1641 88.5781 19.5547C89.5677 18.9453 90.6641 18.6406 91.8672 18.6406C93.6484 18.6406 95.0312 19.2448 96.0156 20.4531C97 21.6615 97.4922 23.3802 97.4922 25.6094V26.7266H88.3516C88.3984 28.0391 88.8047 29.0859 89.5703 29.8672C90.3359 30.6484 91.3125 31.0391 92.5 31.0391C93.3438 31.0391 94.0573 30.8828 94.6406 30.5703C95.224 30.2578 95.7396 29.8438 96.1875 29.3281L97.3281 30.6328C96.0781 32.3672 94.2656 33.2344 91.8359 33.2344ZM91.8672 20.8516C90.8984 20.8516 90.0938 21.1953 89.4531 21.8828C88.8125 22.5703 88.4193 23.5391 88.2734 24.7891H94.6094V24.5938C94.5469 23.3906 94.2188 22.4583 93.625 21.7969C93.0312 21.1354 92.1953 20.8516 91.8672 20.8516Z" fill="#757575"/>
<path d="M107.883 21.7344C107.383 21.6562 106.93 21.6172 106.523 21.6172C105.055 21.6172 104.055 22.1953 103.523 23.3516V33H100.664V18.875H103.398L103.469 20.5078C104.25 19.2578 105.32 18.6328 106.68 18.6328C107.117 18.6328 107.539 18.6953 107.945 18.8203L107.883 21.7344Z" fill="#757575"/>
<path d="M116.07 33.2344C114.19 33.2344 112.659 32.6094 111.477 31.3594C110.294 30.1094 109.703 28.4323 109.703 26.3281V25.9219C109.703 24.5052 109.974 23.2422 110.516 22.1328C111.057 21.0234 111.823 20.1641 112.812 19.5547C113.802 18.9453 114.898 18.6406 116.102 18.6406C117.883 18.6406 119.266 19.2448 120.25 20.4531C121.234 21.6615 121.727 23.3802 121.727 25.6094V26.7266H112.586C112.633 28.0391 113.039 29.0859 113.805 29.8672C114.57 30.6484 115.547 31.0391 116.734 31.0391C117.578 31.0391 118.292 30.8828 118.875 30.5703C119.458 30.2578 119.974 29.8438 120.422 29.3281L121.562 30.6328C120.312 32.3672 118.5 33.2344 116.07 33.2344ZM116.102 20.8516C115.133 20.8516 114.328 21.1953 113.688 21.8828C113.047 22.5703 112.654 23.5391 112.508 24.7891H118.844V24.5938C118.781 23.3906 118.453 22.4583 117.859 21.7969C117.266 21.1354 116.43 20.8516 116.102 20.8516Z" fill="#757575"/>
<path d="M129.109 18.875L129.203 20.6328C130.203 19.3047 131.531 18.6406 133.188 18.6406C136.062 18.6406 137.516 20.2656 137.547 23.5156V33H134.688V23.5391C134.688 22.6016 134.484 21.9062 134.078 21.4531C133.672 21 133.016 20.7734 132.109 20.7734C131.375 20.7734 130.734 20.9609 130.188 21.3359C129.641 21.7109 129.219 22.2031 128.922 22.8125V33H126.062V18.875H129.109Z" fill="#757575"/>
<path d="M147.5 33.2344C145.62 33.2344 144.089 32.6094 142.906 31.3594C141.724 30.1094 141.133 28.4323 141.133 26.3281V25.9219C141.133 24.5052 141.404 23.2422 141.945 22.1328C142.487 21.0234 143.253 20.1641 144.242 19.5547C145.232 18.9453 146.328 18.6406 147.531 18.6406C149.312 18.6406 150.695 19.2448 151.68 20.4531C152.664 21.6615 153.156 23.3802 153.156 25.6094V26.7266H144.016C144.062 28.0391 144.469 29.0859 145.234 29.8672C146 30.6484 146.977 31.0391 148.164 31.0391C149.008 31.0391 149.721 30.8828 150.305 30.5703C150.888 30.2578 151.404 29.8438 151.852 29.3281L152.992 30.6328C151.742 32.3672 149.93 33.2344 147.5 33.2344ZM147.531 20.8516C146.562 20.8516 145.758 21.1953 145.117 21.8828C144.477 22.5703 144.083 23.5391 143.938 24.7891H150.273V24.5938C150.211 23.3906 149.883 22.4583 149.289 21.7969C148.695 21.1354 147.859 20.8516 147.531 20.8516Z" fill="#757575"/>
</svg>
